<svg xmlns="http://www.w3.org/2000/svg" xmlns:xlink="http://www.w3.org/1999/xlink" width="1400" height="987" viewBox="0 0 1400 987">
    <defs>
        <linearGradient id="b" x1="98.286%" x2="0%" y1="1.714%" y2="100%">
            <stop offset="0%" stop-color="#FFF"/>
            <stop offset="100%" stop-color="#FFF" stop-opacity=".5"/>
        </linearGradient>
        <path id="a" d="M150.407 0h64.716c.329.311.655.628.978.95 18.654 18.642 18.654 48.867 0 67.509l-23.017 23 2.117-1.794.998-.997c-18.655 18.642-18.655 48.866 0 67.508 18.654 18.643 48.899 18.643 67.553 0l-2.171 2.17.043.043L370.897 49.19c18.654-18.642 48.899-18.642 67.553 0 18.655 18.642 18.655 48.866 0 67.508L237.42 317.593l.884-.68 1.193-1.193c-18.654 18.642-18.654 48.867 0 67.509 18.655 18.641 48.9 18.641 67.554 0l1.937-1.937.853-.712 145.396-145.297c18.655-18.643 48.9-18.642 67.554 0 18.655 18.642 18.655 48.866 0 67.508l-54.812 54.775-.621.943-.568.568c-18.655 18.642-18.655 48.866 0 67.508 18.654 18.642 48.899 18.642 67.554 0l.176-.176 106.967-106.811c18.655-18.642 48.9-18.642 67.554 0 18.654 18.642 18.654 48.866 0 67.508L437.785 658.178l.103.103c-18.655 18.642-18.655 48.866 0 67.508 18.654 18.641 48.899 18.642 67.553 0l.102.101L741.492 490.1c18.654-18.641 48.898-18.641 67.553.001 18.654 18.642 18.654 48.866 0 67.507L693.39 673.187l-.572.775-.72.72c-18.655 18.642-18.655 48.866 0 67.509 18.654 18.642 48.899 18.641 67.553-.001l.384-.384 1.034-.986 280.525-280.336c18.655-18.642 48.9-18.642 67.554 0 18.654 18.642 18.654 48.866 0 67.508L979.686 657.366l1.786-1.58-.586.585c-18.655 18.642-18.655 48.866 0 67.508 18.654 18.642 48.898 18.642 67.553 0l-.424.423.44-.234L1400 372.76v135.016l-340.349 340.12.439-.235.254-.254c-18.655 18.642-18.655 48.866 0 67.508 18.654 18.642 48.899 18.643 67.554 0l.756-.755.438-.235 234.856-234.698c9.906-9.9 23.08-14.542 36.052-13.927v112.916l-49.738 49.704.101.101.29-.289c-18.655 18.643-18.655 48.867 0 67.509 13.346 13.337 32.624 17.133 49.347 11.386V987H0V150.306L150.407 0z"/>
    </defs>
    <use fill="url(#b)" fill-rule="evenodd" opacity=".123" xlink:href="#a"/>
</svg>