<svg height="14" viewBox="0 0 12 14" width="12" xmlns="http://www.w3.org/2000/svg"><path d="m4.39031393 0 1.42132554 1.38988827c.16215581.1599626.16215581.41791582-.00087181.57702767-.16305025.15908976-.4273658.15908976-.59041606-.00001104l-2.01090011-1.9669049h-1.06932019c.03438655.11030643.07378248.18712752.11818781.23046326l.93414516.91229948c.16457875.16059237.16457875.41855664.00153981.5776464-.16303893.15908975-.4273658.15908975-.59040474 0l-.49226436-.47763387c-.16305026-.15908976-.42736581-.15908976-.59041607 0-.16303893.15911185-.16303893.41706508 0 .57616588l1.27074131 1.24004713c.18619273.18288858.18619273.44084181.0231538.59993156-.16302762.1591008-.42736581.1591008-.59040475 0l-1.74059913-1.69681007c-.08875988-.08661592-.25002992-.11044956-.48381014-.07150091v.74722599l.8484286.83238481c.14368938.14093679.14368938.39889002-.01936088.55799082-.16302761.15910081-.4273658.15910081-.59039342 0l-.17675005-.16972962c-.01400161-.01366341-.03464303-.03151855-.06192425-.05356544v1.13069219l9.18805126 8.97309419c.16397868.1304516.40579712.1211045.55862348-.0280304.16302761-.1590898.16302761-.417043 0-.5761438l-.24316578-.2372922c-.17494984-.1712544-.17494984-.4291966-.01192222-.5882974.16268794-.1587583.42621095-.1591118.58932916-.0010606l.7094798.6905858c.1630276.1590898.4273544.1590898.5903934 0 .1630389-.1591008.1630389-.4170429.0000113-.5761327l-2.05261491-2.0030349c-.17170038-.1692987-.17170038-.4272409-.00865012-.5863417.16302761-.15910082.42736581-.15910082.59040474 0l2.09005989 2.0252795v-1.1448804l-1.0113875-.98180378c-.1613746-.15922234-.1613746-.41716452.0016644-.57626532.1630389-.1591008.4273658-.1591008.590416 0l.4193071.39799781v-1.15967789l-1.1578961-1.11309086c-.1750064-.1711991-.1750064-.42913023-.0119788-.58823103.1630389-.1591008.4273771-.1591008.590416 0l.5794589.55358628v-1.15237822l-1.0273064-.99228238c-.1621558-.15997365-.1621558-.41791583.0008831-.57702768.1630389-.15908976.4273771-.15908976.5904047.00001105l.4360186.41498402v-5.109175z" fill-rule="evenodd" transform="matrix(-1 0 0 1 12 0)"/></svg>