<svg xmlns="http://www.w3.org/2000/svg" xmlns:xlink="http://www.w3.org/1999/xlink" width="222" height="306" viewBox="0 0 222 306">
    <defs>
        <linearGradient id="b" x1="96.814%" x2=".899%" y1="3.215%" y2="100%">
            <stop offset="0%"/>
            <stop offset="100%" stop-opacity=".6"/>
        </linearGradient>
        <path id="a" d="M91.143 306H0V105.27l64.401-60.157c6.032-5.635 15.811-5.635 21.843 0 6.032 5.634 6.032 14.769 0 20.403l-41.86 39.101.577-.478-.189.177c-6.032 5.634-6.032 14.77 0 20.403 6.032 5.635 15.811 5.635 21.843 0l-.137.129.141-.071L194.66 5.175c6.032-5.634 15.812-5.634 21.843 0 6.032 5.635 6.032 14.77 0 20.404L70.24 162.2l.142-.07.082-.078c-6.032 5.635-6.032 14.77 0 20.404s15.811 5.634 21.843 0l.245-.228.141-.071 75.939-70.934c6.031-5.634 15.81-5.634 21.842 0 6.032 5.634 6.032 14.77 0 20.403l-26.268 24.537.033.03.094-.087c-6.032 5.635-6.032 14.77 0 20.404s15.811 5.634 21.843 0l.233-.218.228-.194 8.996-8.403c6.032-5.635 15.811-5.635 21.843 0 5.654 5.281 6.008 13.638 1.063 19.304L91.143 306z"/>
    </defs>
    <use fill="url(#b)" fill-rule="evenodd" opacity=".115" style="mix-blend-mode:multiply" xlink:href="#a"/>
</svg>