<svg xmlns="http://www.w3.org/2000/svg" width="46" height="46" viewBox="0 0 46 46">
    <defs>
        <filter id="3m1pje2iha">
            <feColorMatrix in="SourceGraphic" values="0 0 0 0 1.000000 0 0 0 0 1.000000 0 0 0 0 1.000000 0 0 0 1.000000 0"/>
        </filter>
    </defs>
    <g fill="none" fill-rule="evenodd">
        <g>
            <g filter="url(#3m1pje2iha)" transform="translate(-1225 -1448) translate(1207 1430)">
                <g>
                    <path fill="#000" fill-rule="nonzero" d="M41.785 0H4.215C1.917 0 0 1.917 0 4.215v37.57C0 44.083 1.917 46 4.215 46h37.57C44.083 46 46 44.083 46 41.785V4.215C46 1.917 44.083 0 41.785 0zM13.417 38.333H5.75V17.25h7.667v21.083zM9.583 14.757c-2.298 0-3.833-1.535-3.833-3.452 0-2.104 1.535-3.638 3.833-3.638 2.299 0 3.834 1.534 3.834 3.451 0 2.104-1.535 3.639-3.834 3.639zM40.25 38.333h-7.667v-11.5c0-3.07-2.111-3.833-2.68-3.833-.577 0-3.07.382-3.07 3.833v11.5h-7.666V17.25h7.666v3.07c1.153-1.73 3.07-3.07 6.709-3.07 3.638 0 6.708 2.875 6.708 9.583v11.5z" transform="translate(18 18)"/>
                </g>
            </g>
        </g>
    </g>
</svg>
