<svg xmlns="http://www.w3.org/2000/svg" width="48" height="48" viewBox="0 0 48 48">
    <defs>
        <filter id="i7ugbz4fja">
            <feColorMatrix in="SourceGraphic" values="0 0 0 0 1.000000 0 0 0 0 1.000000 0 0 0 0 1.000000 0 0 0 1.000000 0"/>
        </filter>
    </defs>
    <g fill="none" fill-rule="evenodd">
        <g>
            <g>
                <g filter="url(#i7ugbz4fja)" transform="translate(-807 -360) translate(783 352) translate(24 8)">
                    <path fill="#000" fill-rule="nonzero" d="M39.448 13.928c.357.603.548 1.294.552 2v16.145c-.005 2.167-1.721 3.922-3.84 3.927H11.84c-2.119-.006-3.835-1.76-3.84-3.927V15.927c.004-.703.196-1.392.552-1.993l14.75 13.073c.4.354.995.354 1.397 0zM36.16 12c.599.005 1.187.154 1.719.436L24 24.74 10.117 12.436c.532-.282 1.123-.432 1.723-.436z"/>
                </g>
            </g>
        </g>
    </g>
</svg>