<svg xmlns="http://www.w3.org/2000/svg" width="2122" height="1512" viewBox="0 0 2122 1512">
    <g fill="none" fill-rule="evenodd">
        <g fill="#A0FF1F">
            <g>
                <g>
                    <g>
                        <path d="M402.1 236.7l-.698-.698-.002-.002.7.7zM284.767 327.62c-16.565 16.558-16.566 43.406 0 59.966l20.438 20.429-1.88-1.594-.885-.887c16.565 16.56 16.565 43.407 0 59.966-16.567 16.56-43.423 16.56-59.99 0l1.929 1.928-.037.038-97.034-96.997c-16.565-16.558-43.424-16.558-59.988 0-16.565 16.558-16.565 43.405 0 59.965L265.835 608.88l-.786-.606-1.059-1.058c16.566 16.558 16.565 43.405 0 59.965-16.565 16.558-43.423 16.558-59.988 0l-1.72-1.72-.758-.632L72.413 535.767c-16.566-16.559-43.424-16.559-59.988 0C4.176 544.012.034 554.81 0 565.616v.267c.034 10.806 4.176 21.604 12.425 29.85l48.672 48.653.552.837.504.504 250.53 250.755.39.208 264.792 264.69c8.245 8.24 19.034 12.38 29.838 12.42h.316c10.8-.042 21.594-4.18 29.835-12.419 16.565-16.558 16.565-43.406 0-59.966L323.015 786.7l.39.209.116.116c-16.456-16.568-16.42-43.335.11-59.856 16.565-16.559 43.422-16.56 59.988 0l.671.671.39.209 145.6 145.545c16.566 16.558 43.423 16.558 59.988-.001 16.566-16.56 16.567-43.405 0-59.964l-9.189-9.186.09-.09.257.257c-16.565-16.56-16.565-43.406 0-59.965 16.567-16.56 43.423-16.56 59.988 0l.64.64.626.57 24.708 24.698c16.565 16.558 43.423 16.558 59.988 0 16.565-16.559 16.565-43.407 0-59.966l-51.532-51.51-99.688-100.147-231.401-231.311c-8.283-8.28-19.138-12.419-29.994-12.419-10.856 0-21.71 4.14-29.994 12.419zm37.636 459.384l-.203-.203.203.203zM312.1 895.5l-.698-.7h-.002l.7.7z" transform="translate(195 -4898) translate(0 104) translate(0 5172) matrix(1 0 0 -1 -195 1134)"/>
                        <path d="M1339.7 574.5l-.698-.698-.002-.002.7.7zm-117.333 90.919c-16.565 16.558-16.566 43.406 0 59.966l20.438 20.429-1.88-1.594-.885-.887c16.565 16.56 16.565 43.407 0 59.966-16.567 16.56-43.423 16.56-59.99 0l1.929 1.928-.037.038-97.034-96.997c-16.565-16.558-43.424-16.558-59.988 0-16.565 16.558-16.565 43.405 0 59.965l178.515 178.447-.786-.606-1.059-1.058c16.566 16.558 16.565 43.405 0 59.965-16.565 16.558-43.423 16.558-59.988 0l-1.72-1.72-.758-.632-129.111-129.062c-16.566-16.559-43.424-16.559-59.988 0-8.249 8.245-12.391 19.043-12.425 29.849v.267c.034 10.806 4.176 21.604 12.425 29.85l48.672 48.653.552.837.504.504 250.53 250.755.39.208 264.792 264.69c8.245 8.24 19.034 12.38 29.838 12.42h.316c10.8-.042 21.594-4.18 29.835-12.419 16.565-16.558 16.565-43.406 0-59.966L1260.615 1124.5l.39.209.116.116c-16.456-16.568-16.42-43.335.11-59.856 16.565-16.559 43.422-16.56 59.988 0l.671.671.39.209 145.6 145.545c16.566 16.558 43.423 16.558 59.988-.001 16.566-16.56 16.567-43.405 0-59.964l-9.189-9.186.09-.09.257.257c-16.565-16.56-16.565-43.406 0-59.965 16.567-16.56 43.423-16.56 59.988 0l.64.64.626.57 24.708 24.698c16.565 16.558 43.423 16.558 59.988 0 16.565-16.559 16.565-43.407 0-59.966l-51.532-51.51-99.688-100.147-231.401-231.311c-8.283-8.28-19.138-12.419-29.994-12.419-10.856 0-21.71 4.14-29.994 12.419zm37.636 459.384l-.203-.203.203.203zM1249.7 1233.3l-.698-.7H1249l.7.7z" transform="translate(195 -4898) translate(0 104) translate(0 5172) matrix(1 0 0 -1 -195 1134) rotate(180 1307.5 1042.7)"/>
                        <path d="M1783.7 1.5l-.698-.698L1783 .8l.7.7zM1666.367 92.42c-16.565 16.558-16.566 43.406 0 59.966l20.438 20.429-1.88-1.594-.885-.887c16.565 16.56 16.565 43.407 0 59.966-16.567 16.56-43.423 16.56-59.99 0l1.929 1.928-.037.038-97.034-96.997c-16.565-16.558-43.424-16.558-59.988 0-16.565 16.558-16.565 43.405 0 59.965l178.515 178.447-.786-.606-1.059-1.058c16.566 16.558 16.565 43.405 0 59.965-16.565 16.558-43.423 16.558-59.988 0l-1.72-1.72-.758-.632-129.111-129.062c-16.566-16.559-43.424-16.559-59.988 0-8.249 8.245-12.391 19.043-12.425 29.849v.267c.034 10.806 4.176 21.604 12.425 29.85l48.672 48.653.552.837.504.504 250.53 250.755.39.208 264.792 264.69c8.245 8.24 19.034 12.38 29.838 12.42h.316c10.8-.042 21.594-4.18 29.835-12.419 16.565-16.558 16.565-43.406 0-59.966L1704.615 551.5l.39.209.116.116c-16.456-16.568-16.42-43.335.11-59.856 16.565-16.559 43.422-16.56 59.988 0l.671.671.39.209 145.6 145.545c16.566 16.558 43.423 16.558 59.988-.001 16.566-16.56 16.567-43.405 0-59.964l-9.189-9.186.09-.09.257.257c-16.565-16.56-16.565-43.406 0-59.965 16.567-16.56 43.423-16.56 59.988 0l.64.64.626.57 24.708 24.698c16.566 16.558 43.423 16.558 59.988 0 16.565-16.559 16.565-43.407 0-59.966l-51.532-51.51-99.688-100.147-231.401-231.311C1718.072 84.139 1707.217 80 1696.36 80c-10.856 0-21.71 4.14-29.994 12.419zm37.636 459.384l-.203-.203.203.203zM1693.7 660.3l-.698-.7H1693l.7.7z" transform="translate(195 -4898) translate(0 104) translate(0 5172) matrix(1 0 0 -1 -195 1134) rotate(180 1751.5 469.7)"/>
                    </g>
                </g>
            </g>
        </g>
    </g>
</svg>