<svg xmlns="http://www.w3.org/2000/svg" width="190" height="233" viewBox="0 0 190 233">
    <defs>
        <linearGradient id="a" x1="96.814%" x2=".899%" y1="3.215%" y2="100%">
            <stop offset="0%"/>
            <stop offset="100%" stop-opacity=".6"/>
        </linearGradient>
    </defs>
    <path fill="url(#a)" fill-rule="evenodd" d="M1262.603 1H1400v157.63l-32.401 30.267c-6.032 5.634-15.811 5.634-21.843 0s-6.032-14.77 0-20.404l41.86-39.1-.578.477.19-.177c6.032-5.634 6.032-14.77 0-20.403-6.032-5.634-15.811-5.634-21.843 0l.137-.128-.142.07-128.04 119.602c-6.032 5.634-15.81 5.634-21.843 0-6.031-5.634-6.031-14.769 0-20.403L1361.76 71.808l-.142.07-.082.078c6.032-5.635 6.032-14.77 0-20.404s-15.811-5.634-21.843 0l-.244.229-.142.07-75.939 70.934c-6.031 5.634-15.81 5.634-21.842 0-6.032-5.634-6.032-14.769 0-20.403l26.267-24.537-.032-.03-.094.087c6.032-5.634 6.032-14.77 0-20.404s-15.811-5.634-21.843 0l-.233.218-.228.194-8.996 8.404c-6.032 5.634-15.811 5.634-21.843 0s-6.032-14.77 0-20.404L1262.603 1z" opacity=".115" style="mix-blend-mode:multiply" transform="translate(-1210 -1)"/>
</svg>