<svg xmlns="http://www.w3.org/2000/svg" width="111" height="163" viewBox="0 0 111 163">
    <defs>
        <linearGradient id="77ovizadta" x1="100%" x2="100%" y1="100%" y2="0%">
            <stop offset="0%" stop-color="#F40256"/>
            <stop offset="100%" stop-color="#F70088"/>
        </linearGradient>
    </defs>
    <g fill="none" fill-rule="evenodd">
        <g>
            <path fill="#F474FF" d="M92.913 21.329l6.023 6.02-.554-.47-.261-.26c4.881 4.879 4.881 12.79 0 17.669-4.882 4.88-12.796 4.88-17.677 0l.568.568-.011.01-28.593-28.58c-4.882-4.88-12.796-4.88-17.677 0-4.882 4.879-4.882 12.79 0 17.67l52.604 52.581-.232-.178-.312-.312c4.882 4.879 4.882 12.79 0 17.67-4.881 4.879-12.795 4.879-17.677 0l-.507-.507-.223-.187-38.046-38.03c-4.881-4.879-12.796-4.879-17.677 0-4.881 4.88-4.881 12.79 0 17.67L27.003 97l.163.246.149.149 73.825 73.889.114.061 78.028 77.996c4.881 4.879 12.796 4.879 17.677 0 4.881-4.88 4.881-12.79 0-17.67l-92.775-92.736.115.061.067.067c-4.882-4.88-4.882-12.79 0-17.67 4.88-4.88 12.795-4.88 17.676 0l.198.198.115.061 42.905 42.888c4.881 4.878 12.795 4.878 17.677-.001 4.881-4.88 4.881-12.79 0-17.67l-2.708-2.706.027-.027.075.076c-4.881-4.88-4.881-12.79 0-17.67 4.882-4.879 12.796-4.879 17.677 0l.19.19.183.167 7.28 7.278c4.882 4.879 12.797 4.879 17.678 0 2.43-2.43 3.651-5.611 3.661-8.796v-.078c-.01-3.185-1.23-6.366-3.661-8.796l-15.185-15.178-29.376-29.51L110.59 3.66C108.15 1.22 104.95 0 101.752 0c-3.2 0-6.398 1.22-8.839 3.66-4.88 4.879-4.881 12.79 0 17.669z" transform="rotate(180 118 126.5)"/>
            <path fill="url(#77ovizadta)" d="M83.913 21.329l6.023 6.02-.554-.47-.261-.26c4.881 4.879 4.881 12.79 0 17.669-4.882 4.88-12.796 4.88-17.677 0l.568.568-.011.01-28.593-28.58c-4.882-4.88-12.796-4.88-17.677 0-4.882 4.879-4.882 12.79 0 17.67l52.604 52.581-.232-.178-.312-.312c4.882 4.879 4.882 12.79 0 17.67-4.881 4.879-12.795 4.879-17.677 0l-.507-.507-.223-.187-38.046-38.03c-4.881-4.879-12.796-4.879-17.677 0-4.881 4.88-4.881 12.79 0 17.67L18.003 97l.163.246.149.149 73.825 73.889.114.061 78.028 77.996c4.881 4.879 12.796 4.879 17.677 0 4.881-4.88 4.881-12.79 0-17.67l-92.775-92.736.115.061.067.067c-4.882-4.88-4.882-12.79 0-17.67 4.88-4.88 12.795-4.88 17.676 0l.198.198.115.061 42.905 42.888c4.881 4.878 12.795 4.878 17.677-.001 4.881-4.88 4.881-12.79 0-17.67l-2.708-2.706.027-.027.075.076c-4.881-4.88-4.881-12.79 0-17.67 4.882-4.879 12.796-4.879 17.677 0l.19.19.183.167 7.28 7.278c4.882 4.879 12.797 4.879 17.678 0 2.43-2.43 3.651-5.611 3.661-8.796v-.078c-.01-3.185-1.23-6.366-3.661-8.796l-15.185-15.178-29.376-29.51L101.59 3.66C99.15 1.22 95.95 0 92.752 0c-3.2 0-6.398 1.22-8.839 3.66-4.88 4.879-4.881 12.79 0 17.669z" transform="rotate(180 109 126.5)"/>
        </g>
    </g>
</svg>